<?xml version="1.0" standalone="no"?><!DOCTYPE svg PUBLIC "-//W3C//DTD SVG 1.1//EN" "http://www.w3.org/Graphics/SVG/1.1/DTD/svg11.dtd"><svg t="1594171077865" class="icon" viewBox="0 0 1024 1024" version="1.1" xmlns="http://www.w3.org/2000/svg" p-id="1147" xmlns:xlink="http://www.w3.org/1999/xlink" width="64" height="64"><defs><style type="text/css"></style></defs><path d="M964.949333 735.232a26.282667 26.282667 0 0 0-26.282666 26.282667v131.413333H96.938667v-131.413333a26.282667 26.282667 0 0 0-52.565334 0v157.696a26.282667 26.282667 0 0 0 26.282667 26.282666h894.293333a26.282667 26.282667 0 0 0 26.282667-26.282666v-157.696a26.282667 26.282667 0 0 0-26.282667-26.282667z m0 0" p-id="1148"></path><path d="M499.370667 832.512a26.282667 26.282667 0 0 0 37.205333 0l262.826667-262.826667a26.282667 26.282667 0 0 0-37.205334-37.205333L544.085333 750.933333V93.184a26.282667 26.282667 0 1 0-52.565333 0V750.933333L273.066667 532.48a26.282667 26.282667 0 0 0-37.205334 37.205333z m0 0" p-id="1149"></path></svg>