<?xml version="1.0" standalone="no"?><!DOCTYPE svg PUBLIC "-//W3C//DTD SVG 1.1//EN" "http://www.w3.org/Graphics/SVG/1.1/DTD/svg11.dtd"><svg t="1594171349572" class="icon" viewBox="0 0 1024 1024" version="1.1" xmlns="http://www.w3.org/2000/svg" p-id="1914" xmlns:xlink="http://www.w3.org/1999/xlink" width="64" height="64"><defs><style type="text/css"></style></defs><path d="M512.198 230.181c-72.675 0-141.018 28.029-192.411 78.877-51.412 50.887-79.712 118.57-79.712 190.525s28.301 139.599 79.712 190.485c51.392 50.849 119.734 78.877 192.411 78.877s141.018-28.029 192.411-78.877c51.412-50.887 79.712-118.529 79.712-190.485s-28.301-139.639-79.712-190.525c-51.392-50.849-119.734-78.876-192.411-78.876z m0 481.928c-118.391 0-214.723-95.319-214.723-212.527s96.332-212.567 214.723-212.567c118.394 0 214.725 95.359 214.725 212.567s-96.334 212.527-214.725 212.527z m3.208-551.514c15.841 0 28.691-12.711 28.691-28.417V63.446c0-15.706-12.849-28.417-28.689-28.417-15.861 0-28.708 12.711-28.708 28.417v68.732c0 15.706 12.849 28.417 28.708 28.417z m-241.179 96.292c7.348 0 14.694-2.799 20.292-8.358 11.232-11.079 11.232-29.079 0-40.158l-49.098-48.63c-11.215-11.079-29.39-11.079-40.588 0a28.217 28.217 0 0 0 0 40.196l49.098 48.595a28.763 28.763 0 0 0 20.294 8.356z m-101.756 180.03h-69.45c-15.861 0-28.708 12.711-28.708 28.419 0 15.705 12.847 28.419 28.711 28.419h69.45c15.841 0 28.711-12.711 28.711-28.419s-12.868-28.419-28.711-28.419z m748.903 6.335h-69.45c-15.841 0-28.711 12.711-28.711 28.419s12.868 28.419 28.711 28.419h69.45c15.861 0 28.711-12.711 28.711-28.419s-12.847-28.419-28.711-28.419zM754.678 261.358a28.84 28.84 0 0 0 20.292-8.322l49.119-48.63c11.213-11.079 11.213-29.079 0-40.196-11.215-11.079-29.371-11.079-40.606 0l-49.098 48.63c-11.194 11.079-11.194 29.079 0 40.196a28.842 28.842 0 0 0 20.291 8.319zM618.131 825.585H406.264c-15.861 0-28.708 12.751-28.708 28.419 0 15.706 12.847 28.417 28.708 28.417h211.868c15.861 0 28.708-12.711 28.708-28.417-0.001-15.667-12.847-28.419-28.708-28.419z m-38.35 107.995H444.614c-15.861 0-28.708 12.711-28.708 28.417 0 15.667 12.849 28.417 28.708 28.417h135.167c15.86 0 28.708-12.751 28.708-28.417 0-15.706-12.849-28.417-28.708-28.417z" p-id="1915"></path><path d="M512.198 230.181c-72.675 0-141.018 28.029-192.411 78.877-51.412 50.887-79.712 118.57-79.712 190.525s28.301 139.599 79.712 190.485c51.392 50.849 119.734 78.877 192.411 78.877s141.018-28.029 192.411-78.877c51.412-50.887 79.712-118.529 79.712-190.485s-28.301-139.639-79.712-190.525c-51.392-50.849-119.734-78.876-192.411-78.876z m0 481.928c-118.391 0-214.723-95.319-214.723-212.527s96.332-212.567 214.723-212.567c118.394 0 214.725 95.359 214.725 212.567s-96.334 212.527-214.725 212.527z m3.208-551.514c15.841 0 28.691-12.711 28.691-28.417V63.446c0-15.706-12.849-28.417-28.689-28.417-15.861 0-28.708 12.711-28.708 28.417v68.732c0 15.706 12.849 28.417 28.708 28.417z m-241.179 96.292c7.348 0 14.694-2.799 20.292-8.358 11.232-11.079 11.232-29.079 0-40.158l-49.098-48.63c-11.215-11.079-29.39-11.079-40.588 0a28.217 28.217 0 0 0 0 40.196l49.098 48.595a28.763 28.763 0 0 0 20.294 8.356z m-101.756 180.03h-69.45c-15.861 0-28.708 12.711-28.708 28.419 0 15.705 12.847 28.419 28.711 28.419h69.45c15.841 0 28.711-12.711 28.711-28.419s-12.868-28.419-28.711-28.419z m748.903 6.335h-69.45c-15.841 0-28.711 12.711-28.711 28.419s12.868 28.419 28.711 28.419h69.45c15.861 0 28.711-12.711 28.711-28.419s-12.847-28.419-28.711-28.419zM754.678 261.358a28.84 28.84 0 0 0 20.292-8.322l49.119-48.63c11.213-11.079 11.213-29.079 0-40.196-11.215-11.079-29.371-11.079-40.606 0l-49.098 48.63c-11.194 11.079-11.194 29.079 0 40.196a28.842 28.842 0 0 0 20.291 8.319zM618.131 825.585H406.264c-15.861 0-28.708 12.751-28.708 28.419 0 15.706 12.847 28.417 28.708 28.417h211.868c15.861 0 28.708-12.711 28.708-28.417-0.001-15.667-12.847-28.419-28.708-28.419z m-38.35 107.995H444.614c-15.861 0-28.708 12.711-28.708 28.417 0 15.667 12.849 28.417 28.708 28.417h135.167c15.86 0 28.708-12.751 28.708-28.417 0-15.706-12.849-28.417-28.708-28.417z" p-id="1916"></path></svg>